<svg xmlns="http://www.w3.org/2000/svg" width="200.434" height="41.562" viewBox="0 0 200.434 41.562">
  <g id="Group_44392" data-name="Group 44392" transform="translate(0 5)">
    <g id="Group_44482" data-name="Group 44482" transform="translate(0 -5)">
      <g id="Group_45436" data-name="Group 45436">
        <path id="Path_41022" data-name="Path 41022" d="M0,41.842,5.009,21.32C7.764,10.031,19.733.8,31.607.8L29.062,11.223H18.093l-2.464,10.1H26.6C23.843,32.607,11.874,41.842,0,41.842" transform="translate(0 -0.542)" fill="#ced600" fill-rule="evenodd"/>
        <path id="Path_41023" data-name="Path 41023" d="M36.889.8H58.477C53.286,6.954,45.32,11.147,37.372,11.222v0H34.344c-11.874,0-23.844,9.236-26.6,20.524L10.291,21.32a25.111,25.111,0,0,1,5.5-10.354l.063-.073q.342-.392.7-.774l.073-.077q.356-.378.725-.745l.076-.075q.366-.361.746-.71l.09-.082q.377-.344.766-.674l.1-.089.247-.206.055-.044c.155-.129.312-.255.471-.38l.129-.1.241-.186.1-.079c.144-.109.289-.217.435-.324l.146-.108.231-.165.182-.127c.118-.082.236-.164.356-.245l.185-.125.223-.147.213-.137c.106-.069.214-.137.323-.2.07-.044.141-.089.212-.132l.223-.136.213-.127.331-.192.232-.132c.068-.038.137-.076.206-.114l.264-.145L24.6,3.98l.3-.153.2-.1c.091-.046.182-.092.274-.136l.19-.092c.122-.059.245-.117.369-.174.063-.03.126-.059.19-.087.1-.044.192-.086.288-.129l.162-.072q.207-.09.416-.176l.169-.07c.1-.043.209-.085.313-.126l.153-.06q.214-.084.43-.163l.153-.056.341-.122.139-.048c.148-.051.3-.1.444-.148l.142-.045.359-.112.131-.039c.152-.045.3-.089.457-.132L30.35,1.7l.368-.1.134-.035q.232-.059.467-.113l.112-.026.389-.086.127-.026c.158-.033.317-.064.475-.094l.1-.018c.135-.025.268-.048.4-.071l.127-.02c.16-.027.321-.052.482-.075l.08-.01c.141-.019.282-.038.424-.055l.122-.015c.164-.019.327-.037.491-.052L34.706.9q.222-.021.444-.037l.13-.009c.165-.011.329-.022.493-.029h.012c.162-.007.324-.013.485-.017l.12,0q.25-.006.5-.006" transform="translate(-5.282 -0.542)" fill="#1a3c8d" fill-rule="evenodd"/>
        <path id="Path_41024" data-name="Path 41024" d="M70.948,65.3c-2.755,11.288-14.725,20.523-26.6,20.523H33.38c11.874,0,23.843-9.235,26.6-20.523Z" transform="translate(-22.76 -44.527)" fill="#ced600" fill-rule="evenodd"/>
        <path id="Path_41025" data-name="Path 41025" d="M118.583,65.3a24.861,24.861,0,0,1-4.99,9.751,5.147,5.147,0,0,0-.549-6.368,6.709,6.709,0,0,0-4-1.508h-5.806L103.7,65.3Z" transform="translate(-70.396 -44.527)" fill="#1a3c8d" fill-rule="evenodd"/>
      </g>
      <path id="Path_41026" data-name="Path 41026" d="M194.008,25.71q-1.6-4.279-3.566-8.558a82.71,82.71,0,0,0-4.254-8.087l-4.2,16.646h-5.836L182.488.579h4.539q.877,1.269,1.888,2.992t2.079,3.717q1.068,1.994,2.137,4.152t2.022,4.261L198.929.579h5.914L198.472,25.71ZM210.794.579,204.461,25.71h5.913L216.745.579ZM223.764,21.5a12.234,12.234,0,0,0,1.755-.127,5.442,5.442,0,0,0,1.564-.453A2.936,2.936,0,0,0,228.208,20a2.548,2.548,0,0,0,.438-1.542,1.94,1.94,0,0,0-.419-1.25,4.692,4.692,0,0,0-1.068-.961,9.919,9.919,0,0,0-1.45-.8q-.8-.363-1.6-.8a21.443,21.443,0,0,1-1.945-1.233,7.664,7.664,0,0,1-1.565-1.469,6.82,6.82,0,0,1-1.03-1.813,6.414,6.414,0,0,1-.381-2.3,7.244,7.244,0,0,1,.667-3.1,6.889,6.889,0,0,1,1.984-2.485,9.718,9.718,0,0,1,3.3-1.65,16.166,16.166,0,0,1,4.654-.6,13.722,13.722,0,0,1,2.366.2,19.6,19.6,0,0,1,2.136.49,12.919,12.919,0,0,1,1.812.67A12.545,12.545,0,0,1,237.5,2.1l-2.48,4.171a8.886,8.886,0,0,0-2.327-1.161,9.1,9.1,0,0,0-2.975-.471,9.462,9.462,0,0,0-1.678.144,4.479,4.479,0,0,0-1.412.49,2.8,2.8,0,0,0-.973.888,2.373,2.373,0,0,0-.363,1.342,2.371,2.371,0,0,0,.286,1.214,3.049,3.049,0,0,0,.744.853,5.633,5.633,0,0,0,1.068.653l1.3.616q1.184.58,2.289,1.233a9.472,9.472,0,0,1,1.945,1.5,6.71,6.71,0,0,1,1.335,1.94,6.16,6.16,0,0,1,.5,2.575,7.618,7.618,0,0,1-.8,3.59,7.109,7.109,0,0,1-2.251,2.539,10.173,10.173,0,0,1-3.452,1.5,18.713,18.713,0,0,1-4.445.489,16.7,16.7,0,0,1-2.994-.253,22.28,22.28,0,0,1-2.517-.6,13.457,13.457,0,0,1-1.946-.744,12.022,12.022,0,0,1-1.316-.725l2.518-4.316q.458.29,1.106.617a12.86,12.86,0,0,0,1.469.616,14.428,14.428,0,0,0,1.735.49,9,9,0,0,0,1.908.2M259.356.579h5.951l-6.37,25.131h-5.952l2.709-10.7H246.31L243.6,25.71h-5.912L244.02.579h5.951l-2.441,9.647h9.385Zm23,25.131h5.99q-.344-2.9-.744-6.22t-.877-6.636q-.477-3.319-1.03-6.491T284.533.579h-5.3q-1.984,2.611-3.892,5.349t-3.91,5.784q-2,3.046-4.158,6.492t-4.635,7.506h6.219q.762-1.414,1.6-2.774t1.6-2.7h9.918q.115,1.342.21,2.7t.171,2.774M280.6,6.091q.382,2.5.592,5t.4,4.714h-7.134q1.45-2.5,2.995-4.9T280.6,6.091M309.712,25.71q-1.6-4.279-3.567-8.558a82.37,82.37,0,0,0-4.254-8.087l-4.2,16.646h-5.836L298.191.579h4.539q.878,1.269,1.889,2.992T306.7,7.288q1.068,1.994,2.136,4.152t2.021,4.261L314.633.579h5.913L314.175,25.71Z" transform="translate(-120.111 0.001)" fill="#1a3c8d" fill-rule="evenodd"/>
      <path id="Union_4" data-name="Union 4" d="M14.467,8.091a2.752,2.752,0,0,1-.982-.5,1.838,1.838,0,0,1-.547-.763,2.663,2.663,0,0,1-.17-.966,4.528,4.528,0,0,1,.2-1.283L14.23.092h2.113L15.016,4.834a2.732,2.732,0,0,0-.135.844,1.306,1.306,0,0,0,.061.417.742.742,0,0,0,.216.324,1.069,1.069,0,0,0,.42.214,2.425,2.425,0,0,0,.657.075,1.634,1.634,0,0,0,1.232-.434,2.87,2.87,0,0,0,.651-1.232L19.5.092H21.61l-1.422,5.1a4.1,4.1,0,0,1-1.5,2.353,4.7,4.7,0,0,1-2.742.723A5.31,5.31,0,0,1,14.467,8.091Zm117.883.063a14.136,14.136,0,0,1-1.436-.184L133.1.232q.77-.128,1.483-.18T135.857,0a6.393,6.393,0,0,1,1.794.232,3.963,3.963,0,0,1,1.341.659,2.852,2.852,0,0,1,.833,1.018,2.961,2.961,0,0,1,.284,1.308,4.743,4.743,0,0,1-.447,2.093,4.334,4.334,0,0,1-1.279,1.567,6.052,6.052,0,0,1-2.024.989,9.631,9.631,0,0,1-2.695.348Q133.1,8.212,132.35,8.153Zm2.464-6.6-1.435,5.112c.1.007.2.013.3.017s.246.006.426.006a5.119,5.119,0,0,0,1.591-.232,3.388,3.388,0,0,0,1.206-.666,2.923,2.923,0,0,0,.764-1.063,3.566,3.566,0,0,0,.271-1.418,2.081,2.081,0,0,0-.122-.734,1.343,1.343,0,0,0-.4-.567,1.914,1.914,0,0,0-.717-.364,3.879,3.879,0,0,0-1.063-.128Q135.234,1.515,134.814,1.55Zm-66.926,6.6a14.136,14.136,0,0,1-1.436-.184L68.633.232Q69.4.1,70.116.051T71.4,0a6.4,6.4,0,0,1,1.794.232,3.967,3.967,0,0,1,1.34.659,2.852,2.852,0,0,1,.833,1.018,2.977,2.977,0,0,1,.284,1.308A4.742,4.742,0,0,1,75.2,5.308,4.345,4.345,0,0,1,73.92,6.875a6.062,6.062,0,0,1-2.024.989,9.631,9.631,0,0,1-2.695.348Q68.633,8.212,67.888,8.153Zm2.464-6.6L68.917,6.661c.1.007.2.013.3.017s.246.006.426.006a5.124,5.124,0,0,0,1.591-.232,3.388,3.388,0,0,0,1.206-.666,2.936,2.936,0,0,0,.764-1.063,3.549,3.549,0,0,0,.271-1.418,2.083,2.083,0,0,0-.122-.734,1.343,1.343,0,0,0-.4-.567,1.914,1.914,0,0,0-.717-.364,3.879,3.879,0,0,0-1.063-.128C70.907,1.515,70.631,1.526,70.353,1.55Zm54.388,6.558,1.827-6.5h-2.747l.432-1.515h7.609l-.433,1.515h-2.75l-1.827,6.5Zm-7.882,0L119.107.093h2.111l-1.827,6.489h4.157l-.433,1.526Zm-9.422,0,1.827-6.5h-2.748l.433-1.515h7.609l-.433,1.515h-2.749l-1.827,6.5Zm-8.841,0q-.218-.983-.414-2.035t-.371-2.093q-.177-1.042-.312-2.03T97.268.093H99.53c.027.439.062.912.1,1.416s.087,1.016.142,1.527.11,1.022.169,1.527.12.978.183,1.417q.418-.6.9-1.318T102,3.169q.494-.775.975-1.561t.886-1.516h2.247q-.514.832-1.124,1.792T103.68,3.874q-.7,1.031-1.477,2.1t-1.631,2.134Zm-11.131,0,2.208-7.9Q90.4.094,91.059.046T92.3,0a6.864,6.864,0,0,1,1.536.156,3.73,3.73,0,0,1,1.158.451,2.166,2.166,0,0,1,.732.722,1.827,1.827,0,0,1,.258.96,2.625,2.625,0,0,1-.394,1.469,2.892,2.892,0,0,1-1.082.971,5.357,5.357,0,0,1-1.625.532,11.908,11.908,0,0,1-2.031.162h-.529l-.757,2.684ZM91.73,1.526l-.324.024-.651,2.359h.529a6.648,6.648,0,0,0,1.036-.075,2.613,2.613,0,0,0,.8-.249,1.353,1.353,0,0,0,.515-.446,1.155,1.155,0,0,0,.183-.664.763.763,0,0,0-.44-.741,2.857,2.857,0,0,0-1.252-.22C91.97,1.515,91.839,1.519,91.73,1.526ZM76.174,8.107,78.422.093h6.134l-.433,1.481H80.1l-.433,1.619h3.548l-.421,1.457H79.247l-.54,1.966h4.332l-.433,1.492Zm-13.093,0c-.018-.3-.038-.6-.061-.885s-.047-.576-.075-.861H59.426q-.273.428-.569.861t-.569.885H56.08q.883-1.295,1.646-2.394T59.2,3.644q.712-.972,1.388-1.845T61.971.093h1.882q.218.832.413,1.844t.365,2.071q.171,1.059.312,2.117c.095.7.184,1.366.264,1.983ZM61.342,3.388q-.549.764-1.064,1.562H62.81c-.044-.47-.093-.972-.142-1.5s-.119-1.064-.21-1.6Q61.889,2.624,61.342,3.388ZM53.049,8.107q-.313-.8-.63-1.578a7.012,7.012,0,0,0-.712-1.348H50.652l-.826,2.926h-2.1l2.208-7.9q.732-.114,1.422-.162T52.614,0A6.035,6.035,0,0,1,54.2.185a3.556,3.556,0,0,1,1.124.5,2.026,2.026,0,0,1,.664.735A1.913,1.913,0,0,1,56.2,2.3a2.826,2.826,0,0,1-.1.751,1.873,1.873,0,0,1-.379.706,2.928,2.928,0,0,1-.745.618,4.63,4.63,0,0,1-1.2.479,13.438,13.438,0,0,1,.779,1.458q.4.855.751,1.792Zm-.976-6.569c-.163.007-.3.015-.405.023l-.609,2.2h.716a4.877,4.877,0,0,0,1.1-.1,2.3,2.3,0,0,0,.718-.277,1.059,1.059,0,0,0,.386-.4.988.988,0,0,0,.114-.457,1.062,1.062,0,0,0-.067-.377.739.739,0,0,0-.244-.317,1.311,1.311,0,0,0-.474-.22,2.969,2.969,0,0,0-.757-.081C52.394,1.526,52.236,1.53,52.073,1.538ZM41.553,8.107l1.828-6.5H40.633L41.066.093h7.61l-.434,1.515H45.493l-1.828,6.5Zm-6.094,0L37.708.093h2.111L37.559,8.107Zm-6.174,0,1.829-6.5H28.366L28.8.093h7.609l-.433,1.515H33.226L31.4,8.107Zm-7.88,0L23.655.093h2.111L23.939,6.581H28.1l-.433,1.526Zm-13.228,0q.284-1.179.6-2.55t.588-2.77q-.352.474-.786,1.058t-.865,1.18q-.434.6-.84,1.139c-.27.362-.506.67-.7.925H4.631c-.045-.232-.1-.524-.162-.879s-.133-.731-.21-1.128-.156-.8-.238-1.2-.157-.77-.229-1.093q-.529,1.4-.954,2.77t-.792,2.55H0q.312-.948.684-2.024t.773-2.145q.4-1.07.791-2.064T2.992.093h1.9Q4.969.4,5.1.978t.269,1.26c.1.458.193.929.292,1.411s.189.924.272,1.324q.458-.6,1-1.3T8,2.313q.528-.67,1-1.255T9.817.093h1.868q-.094.8-.25,1.792t-.353,2.059c-.13.709-.269,1.422-.412,2.139s-.289,1.392-.433,2.024Z" transform="translate(52.141 32.793)" fill="#1a3c8d" stroke="rgba(0,0,0,0)" stroke-width="1"/>
    </g>
  </g>
</svg>
